<svg width="46" height="47" viewBox="0 0 46 47" fill="none" xmlns="http://www.w3.org/2000/svg">
<path d="M8.704 29.832V31.64H5.728V41H3.488V31.64H0.512V29.832H8.704ZM9.76237 36.536C9.76237 35.64 9.93837 34.8453 10.2904 34.152C10.653 33.4587 11.1384 32.9253 11.7464 32.552C12.365 32.1787 13.053 31.992 13.8104 31.992C14.4717 31.992 15.0477 32.1253 15.5384 32.392C16.0397 32.6587 16.4397 32.9947 16.7384 33.4V32.136H18.9944V41H16.7384V39.704C16.4504 40.12 16.0504 40.4667 15.5384 40.744C15.037 41.0107 14.4557 41.144 13.7944 41.144C13.0477 41.144 12.365 40.952 11.7464 40.568C11.1384 40.184 10.653 39.6453 10.2904 38.952C9.93837 38.248 9.76237 37.4427 9.76237 36.536ZM16.7384 36.568C16.7384 36.024 16.6317 35.56 16.4184 35.176C16.205 34.7813 15.917 34.4827 15.5544 34.28C15.1917 34.0667 14.8024 33.96 14.3864 33.96C13.9704 33.96 13.5864 34.0613 13.2344 34.264C12.8824 34.4667 12.5944 34.7653 12.3704 35.16C12.157 35.544 12.0504 36.0027 12.0504 36.536C12.0504 37.0693 12.157 37.5387 12.3704 37.944C12.5944 38.3387 12.8824 38.6427 13.2344 38.856C13.597 39.0693 13.981 39.176 14.3864 39.176C14.8024 39.176 15.1917 39.0747 15.5544 38.872C15.917 38.6587 16.205 38.36 16.4184 37.976C16.6317 37.5813 16.7384 37.112 16.7384 36.568ZM23.4221 33.432C23.7101 33.0053 24.1048 32.6587 24.6061 32.392C25.1181 32.1253 25.6995 31.992 26.3501 31.992C27.1075 31.992 27.7901 32.1787 28.3981 32.552C29.0168 32.9253 29.5021 33.4587 29.8541 34.152C30.2168 34.8347 30.3981 35.6293 30.3981 36.536C30.3981 37.4427 30.2168 38.248 29.8541 38.952C29.5021 39.6453 29.0168 40.184 28.3981 40.568C27.7901 40.952 27.1075 41.144 26.3501 41.144C25.6888 41.144 25.1075 41.016 24.6061 40.76C24.1155 40.4933 23.7208 40.152 23.4221 39.736V41H21.1821V29.16H23.4221V33.432ZM28.1101 36.536C28.1101 36.0027 27.9981 35.544 27.7741 35.16C27.5608 34.7653 27.2728 34.4667 26.9101 34.264C26.5581 34.0613 26.1741 33.96 25.7581 33.96C25.3528 33.96 24.9688 34.0667 24.6061 34.28C24.2541 34.4827 23.9661 34.7813 23.7421 35.176C23.5288 35.5707 23.4221 36.0347 23.4221 36.568C23.4221 37.1013 23.5288 37.5653 23.7421 37.96C23.9661 38.3547 24.2541 38.6587 24.6061 38.872C24.9688 39.0747 25.3528 39.176 25.7581 39.176C26.1741 39.176 26.5581 39.0693 26.9101 38.856C27.2728 38.6427 27.5608 38.3387 27.7741 37.944C27.9981 37.5493 28.1101 37.08 28.1101 36.536ZM34.2659 29.16V41H32.0259V29.16H34.2659ZM44.719 36.376C44.719 36.696 44.6977 36.984 44.655 37.24H38.175C38.2283 37.88 38.4523 38.3813 38.847 38.744C39.2417 39.1067 39.727 39.288 40.303 39.288C41.135 39.288 41.727 38.9307 42.079 38.216H44.495C44.239 39.0693 43.7483 39.7733 43.023 40.328C42.2977 40.872 41.407 41.144 40.351 41.144C39.4977 41.144 38.7297 40.9573 38.047 40.584C37.375 40.2 36.847 39.6613 36.463 38.968C36.0897 38.2747 35.903 37.4747 35.903 36.568C35.903 35.6507 36.0897 34.8453 36.463 34.152C36.8363 33.4587 37.359 32.9253 38.031 32.552C38.703 32.1787 39.4763 31.992 40.351 31.992C41.1937 31.992 41.9457 32.1733 42.607 32.536C43.279 32.8987 43.7963 33.416 44.159 34.088C44.5323 34.7493 44.719 35.512 44.719 36.376ZM42.399 35.736C42.3883 35.16 42.1803 34.7013 41.775 34.36C41.3697 34.008 40.8737 33.832 40.287 33.832C39.7323 33.832 39.263 34.0027 38.879 34.344C38.5057 34.6747 38.2763 35.1387 38.191 35.736H42.399Z" fill="#007FFF"/>
<path d="M33.1375 9.07373C32.8 8.96124 32.4625 8.855 32.125 8.755C32.1812 8.52376 32.2313 8.29253 32.2812 8.06129C33.05 4.33649 32.5437 1.3429 30.8375 0.355449C29.1938 -0.58825 26.5125 0.392947 23.8 2.75532C23.5312 2.98656 23.2687 3.2303 23.0187 3.47403C22.85 3.31154 22.675 3.14905 22.5 2.99281C19.6562 0.467943 16.8063 -0.5945 15.1 0.399197C13.4625 1.34915 12.975 4.16775 13.6625 7.69256C13.7312 8.04254 13.8063 8.38627 13.8938 8.73625C13.4938 8.84875 13.1 8.97374 12.7312 9.10498C9.39375 10.2612 7 12.0861 7 13.9735C7 15.9234 9.55 17.8795 13.0188 19.0669C13.3 19.1607 13.5813 19.2544 13.8688 19.3357C13.775 19.7107 13.6937 20.0794 13.6188 20.4606C12.9625 23.9292 13.475 26.679 15.1125 27.6227C16.8 28.5977 19.6375 27.5977 22.4 25.1791C22.6187 24.9854 22.8375 24.7854 23.0562 24.5729C23.3312 24.8416 23.6187 25.0979 23.9062 25.3479C26.5812 27.6477 29.225 28.5789 30.8563 27.6352C32.5438 26.6603 33.0938 23.7042 32.3813 20.1044C32.325 19.8294 32.2625 19.5482 32.1938 19.2607C32.3938 19.2044 32.5875 19.1419 32.7812 19.0794C36.3875 17.8858 39 15.9546 39 13.9735C39 12.0798 36.5375 10.2424 33.1375 9.07373ZM24.6812 3.76777C27.0063 1.74288 29.175 0.949168 30.1625 1.51789C31.2188 2.1241 31.625 4.57397 30.9625 7.79255C30.9187 8.00504 30.875 8.21128 30.8188 8.41752C29.4312 8.10503 28.025 7.88005 26.6125 7.75505C25.8 6.59262 24.9125 5.48018 23.95 4.43648C24.1938 4.20524 24.4312 3.98651 24.6812 3.76777ZM17.45 17.217C17.7688 17.7608 18.0938 18.3045 18.4375 18.8357C17.4625 18.7295 16.4938 18.5732 15.5375 18.367C15.8125 17.467 16.1562 16.5358 16.5562 15.5859C16.8438 16.1359 17.1375 16.6796 17.45 17.217ZM15.5562 9.6987C16.4562 9.49871 17.4125 9.33622 18.4062 9.21123C18.075 9.72995 17.75 10.2612 17.4438 10.7986C17.1375 11.3299 16.8375 11.8736 16.5562 12.4236C16.1625 11.4924 15.8312 10.5799 15.5562 9.6987ZM17.2688 14.0047C17.6813 13.1423 18.1312 12.2986 18.6062 11.4674C19.0813 10.6362 19.5938 9.82994 20.1313 9.03624C21.0688 8.96749 22.025 8.92999 23 8.92999C23.975 8.92999 24.9375 8.96749 25.8687 9.03624C26.4 9.82369 26.9062 10.6299 27.3875 11.4549C27.8688 12.2798 28.3188 13.1235 28.7437 13.9797C28.325 14.8422 27.875 15.6921 27.3937 16.5296C26.9187 17.3608 26.4125 18.167 25.8813 18.967C24.95 19.0357 23.9813 19.0669 23 19.0669C22.0188 19.0669 21.0687 19.0357 20.15 18.9795C19.6062 18.1857 19.0938 17.3733 18.6125 16.5421C18.1313 15.7109 17.6875 14.8672 17.2688 14.0047ZM28.5562 17.2045C28.875 16.6546 29.175 16.0984 29.4688 15.5359C29.8687 16.4421 30.2188 17.3608 30.525 18.3045C29.5562 18.5232 28.575 18.692 27.5875 18.8045C27.925 18.2795 28.2437 17.742 28.5562 17.2045ZM29.4562 12.4236C29.1625 11.8736 28.8625 11.3236 28.55 10.7861C28.2437 10.2549 27.925 9.72995 27.5938 9.21123C28.6 9.33622 29.5625 9.50496 30.4625 9.7112C30.175 10.6361 29.8375 11.5361 29.4562 12.4236ZM23.0125 5.39268C23.6688 6.10514 24.2875 6.8551 24.8625 7.63006C23.625 7.57381 22.3813 7.57381 21.1438 7.63006C21.7563 6.82385 22.3875 6.07389 23.0125 5.39268ZM15.7625 1.56164C16.8125 0.949168 19.1438 1.82412 21.6 3.999C21.7563 4.1365 21.9125 4.28649 22.075 4.43648C21.1062 5.48018 20.2125 6.59262 19.3938 7.75505C17.9812 7.88005 16.5813 8.09879 15.1938 8.40502C15.1125 8.08629 15.0437 7.7613 14.975 7.43632C14.3875 4.41148 14.775 2.13035 15.7625 1.56164ZM14.2312 18.0358C13.9688 17.9608 13.7125 17.8795 13.4563 17.792C12.125 17.3733 10.6125 16.7108 9.51875 15.8421C8.8875 15.4046 8.4625 14.7297 8.34375 13.9735C8.34375 12.8298 10.3187 11.3674 13.1687 10.3737C13.525 10.2487 13.8875 10.1362 14.25 10.0299C14.675 11.3861 15.1875 12.7173 15.7812 14.0047C15.1812 15.3109 14.6625 16.6608 14.2312 18.0358ZM21.5188 24.1604C20.4875 25.1041 19.2937 25.8541 17.9937 26.3666C17.3 26.6978 16.5 26.729 15.7875 26.4478C14.7938 25.8728 14.3812 23.6667 14.9437 20.6981C15.0125 20.3481 15.0875 19.9981 15.175 19.6544C16.575 19.9544 17.9875 20.1606 19.4187 20.2669C20.2437 21.4356 21.15 22.5543 22.1187 23.6042C21.9187 23.7979 21.7188 23.9854 21.5188 24.1604ZM23.05 22.6418C22.4125 21.9543 21.775 21.1918 21.1562 20.3731C21.7563 20.3981 22.375 20.4106 23 20.4106C23.6437 20.4106 24.275 20.3981 24.9 20.3669C24.325 21.1606 23.7062 21.9168 23.05 22.6418ZM31.2188 24.5167C31.1625 25.2791 30.7875 25.9916 30.1875 26.4728C29.1938 27.0478 27.075 26.2978 24.7875 24.3354C24.525 24.1104 24.2625 23.8667 23.9937 23.6167C24.95 22.5605 25.8313 21.4418 26.6313 20.2669C28.0625 20.1481 29.4875 19.9294 30.8937 19.6107C30.9562 19.8669 31.0125 20.1231 31.0625 20.3731C31.3687 21.7231 31.4188 23.1292 31.2188 24.5167ZM32.3563 17.7983C32.1813 17.8545 32.0063 17.9108 31.825 17.9608C31.3875 16.5983 30.85 15.2672 30.2313 13.9735C30.8313 12.6985 31.3375 11.3861 31.7625 10.0424C32.0875 10.1362 32.4 10.2362 32.7 10.3362C35.6125 11.3361 37.6562 12.8235 37.6562 13.961C37.6562 15.1859 35.475 16.7671 32.3563 17.7983ZM23 16.8608C24.5812 16.8608 25.8625 15.5796 25.8625 13.9985C25.8625 12.4173 24.5812 11.1361 23 11.1361C21.4187 11.1361 20.1375 12.4173 20.1375 13.9985C20.1375 15.5796 21.4187 16.8608 23 16.8608Z" fill="#007FFF"/>
</svg>
