<svg width="755" height="501" viewBox="0 0 755 501" fill="none" xmlns="http://www.w3.org/2000/svg">
<path d="M616.682 214.205C608.719 211.549 600.756 209.041 592.793 206.681C594.12 201.222 595.3 195.763 596.479 190.304C614.617 102.372 602.673 31.702 562.416 8.39114C523.634 -13.8869 460.373 9.27637 396.375 65.0453C390.034 70.5041 383.841 76.2581 377.942 82.012C373.961 78.176 369.832 74.3401 365.703 70.6517C298.608 11.0468 231.366 -14.0344 191.109 9.4239C152.475 31.8495 140.973 98.3886 157.193 181.599C158.815 189.861 160.585 197.976 162.649 206.238C153.212 208.894 143.922 211.844 135.222 214.943C56.4775 242.237 0 285.318 0 329.874C0 375.905 60.1641 422.084 142.005 450.116C148.641 452.329 155.276 454.542 162.06 456.46C159.848 465.312 157.931 474.017 156.161 483.017C140.678 564.9 152.77 629.816 191.404 652.094C231.219 675.11 298.166 651.504 363.344 594.407C368.505 589.834 373.666 585.112 378.827 580.096C385.315 586.44 392.099 592.489 398.882 598.391C461.995 652.684 524.371 674.667 562.858 652.389C602.673 629.373 615.649 559.589 598.839 474.607C597.512 468.116 596.037 461.477 594.415 454.69C599.134 453.362 603.705 451.887 608.276 450.411C693.361 422.232 755 376.643 755 329.874C755 285.17 696.9 241.794 616.682 214.205ZM417.167 88.9462C472.022 41.1443 523.191 22.4071 546.49 35.833C571.411 50.1441 580.996 107.978 565.365 183.96C564.333 188.976 563.301 193.845 561.974 198.714C529.237 191.337 496.059 186.025 462.732 183.075C443.562 155.633 422.623 129.371 399.914 104.733C405.665 99.2738 411.269 94.11 417.167 88.9462ZM246.555 406.445C254.075 419.281 261.743 432.117 269.854 444.657C246.85 442.149 223.993 438.461 201.432 433.592C207.92 412.347 216.03 390.364 225.468 367.938C232.251 380.921 239.182 393.757 246.555 406.445ZM201.874 228.959C223.108 224.237 245.67 220.401 269.116 217.451C261.301 229.696 253.633 242.237 246.407 254.925C239.182 267.466 232.104 280.301 225.468 293.285C216.178 271.302 208.362 249.761 201.874 228.959ZM242.278 330.611C252.011 310.251 262.628 290.334 273.835 270.712C285.042 251.089 297.134 232.057 309.815 213.32C331.935 211.697 354.496 210.812 377.5 210.812C400.504 210.812 423.213 211.697 445.185 213.32C457.719 231.909 469.663 250.942 481.018 270.416C492.372 289.891 502.989 309.809 513.017 330.021C503.137 350.381 492.52 370.446 481.165 390.216C469.958 409.839 458.014 428.871 445.48 447.756C423.508 449.379 400.651 450.116 377.5 450.116C354.349 450.116 331.935 449.379 310.258 448.051C297.429 429.314 285.337 410.134 273.982 390.511C262.628 370.889 252.158 350.972 242.278 330.611ZM508.593 406.15C516.113 393.167 523.191 380.036 530.122 366.758C539.56 388.151 547.817 409.839 555.043 432.117C532.187 437.281 509.035 441.264 485.736 443.92C493.699 431.527 501.22 418.838 508.593 406.15ZM529.827 293.285C522.896 280.301 515.818 267.318 508.445 254.63C501.22 242.089 493.699 229.696 485.884 217.451C509.625 220.401 532.334 224.385 553.568 229.254C546.785 251.089 538.822 272.334 529.827 293.285ZM377.795 127.306C393.278 144.125 407.877 161.829 421.443 180.124C392.246 178.796 362.901 178.796 333.704 180.124C348.155 161.092 363.049 143.387 377.795 127.306ZM206.74 36.8657C231.514 22.4071 286.517 43.0623 344.469 94.4051C348.155 97.6509 351.842 101.192 355.676 104.733C332.819 129.371 311.732 155.633 292.415 183.075C259.089 186.025 226.058 191.189 193.321 198.418C191.404 190.894 189.782 183.222 188.16 175.55C174.299 104.143 183.441 50.2916 206.74 36.8657ZM170.612 425.773C164.419 424.002 158.373 422.084 152.327 420.019C120.918 410.134 85.2324 394.495 59.4268 373.987C44.5332 363.66 34.5059 347.726 31.7041 329.874C31.7041 302.875 78.3018 268.351 145.544 244.893C153.949 241.942 162.502 239.286 171.055 236.778C181.082 268.794 193.174 300.219 207.183 330.611C193.026 361.447 180.787 393.315 170.612 425.773ZM342.552 570.359C318.221 592.637 290.056 610.341 259.384 622.439C243.016 630.259 224.141 630.996 207.33 624.357C183.884 610.784 174.151 558.703 187.423 488.623C189.045 480.361 190.814 472.099 192.879 463.985C225.91 471.066 259.236 475.935 293.005 478.443C312.47 506.033 333.852 532.442 356.708 557.228C351.989 561.802 347.271 566.228 342.552 570.359ZM378.68 534.507C363.639 518.278 348.598 500.279 333.999 480.951C348.155 481.542 362.754 481.837 377.5 481.837C392.688 481.837 407.582 481.542 422.328 480.804C408.762 499.541 394.163 517.393 378.68 534.507ZM571.411 578.768C570.084 596.768 561.236 613.587 547.08 624.947C523.634 638.521 473.645 620.816 419.674 574.49C413.48 569.178 407.287 563.424 400.946 557.523C423.508 532.589 444.3 506.18 463.175 478.443C496.943 475.64 530.564 470.476 563.743 462.952C565.218 469.001 566.545 475.05 567.725 480.951C574.95 512.819 576.13 546.015 571.411 578.768ZM598.249 420.166C594.12 421.494 589.991 422.822 585.715 424.002C575.393 391.839 562.711 360.414 548.112 329.874C562.269 299.776 574.213 268.794 584.24 237.073C591.908 239.286 599.281 241.647 606.359 244.007C675.076 267.613 723.296 302.727 723.296 329.579C723.296 358.496 671.832 395.823 598.249 420.166ZM377.5 398.036C414.808 398.036 445.037 367.791 445.037 330.464C445.037 293.137 414.808 262.892 377.5 262.892C340.192 262.892 309.963 293.137 309.963 330.464C309.963 367.791 340.192 398.036 377.5 398.036Z" fill="#F3F6F9"/>
</svg>
